<mxfile host="Electron" modified="2024-04-18T10:26:45.360Z" agent="Mozilla/5.0 (Windows NT 10.0; Win64; x64) AppleWebKit/537.36 (KHTML, like Gecko) draw.io/24.2.5 Chrome/120.0.6099.109 Electron/28.1.0 Safari/537.36" etag="osD0VtG4oiHaAPKOVigK" version="24.2.5" type="device">
  <diagram id="R2lEEEUBdFMjLlhIrx00" name="Page-1">
    <mxGraphModel dx="1751" dy="753" grid="0" gridSize="10" guides="1" tooltips="1" connect="1" arrows="1" fold="1" page="1" pageScale="1" pageWidth="1200" pageHeight="1920" background="#ffffff" math="0" shadow="0" extFonts="Permanent Marker^https://fonts.googleapis.com/css?family=Permanent+Marker">
      <root>
        <mxCell id="0" />
        <mxCell id="1" parent="0" />
        <mxCell id="1r-0l79jZoqq-O8AW8kQ-20" value="Teacher" style="swimlane;childLayout=stackLayout;horizontal=1;startSize=50;horizontalStack=0;rounded=1;fontSize=14;fontStyle=0;strokeWidth=2;resizeParent=0;resizeLast=1;shadow=1;align=center;arcSize=4;whiteSpace=wrap;html=1;strokeColor=#000000;fontColor=#1A1A1A;fillColor=#EEEEEE;glass=0;swimlaneFillColor=none;gradientColor=none;" parent="1" vertex="1">
          <mxGeometry x="839" y="888" width="106.35" height="120" as="geometry" />
        </mxCell>
        <mxCell id="1r-0l79jZoqq-O8AW8kQ-21" value="+&lt;u&gt;TID&lt;/u&gt;&lt;br&gt;+name&lt;br&gt;+gender&lt;div&gt;+keyword&lt;/div&gt;" style="align=left;strokeColor=none;fillColor=none;spacingLeft=4;fontSize=12;verticalAlign=top;resizable=0;rotatable=0;part=1;html=1;fontColor=#1A1A1A;" parent="1r-0l79jZoqq-O8AW8kQ-20" vertex="1">
          <mxGeometry y="50" width="106.35" height="70" as="geometry" />
        </mxCell>
        <mxCell id="1r-0l79jZoqq-O8AW8kQ-23" value="Student" style="swimlane;childLayout=stackLayout;horizontal=1;startSize=50;horizontalStack=0;rounded=1;fontSize=14;fontStyle=0;strokeWidth=2;resizeParent=0;resizeLast=1;shadow=1;align=center;arcSize=4;whiteSpace=wrap;html=1;strokeColor=#000000;fontColor=#1A1A1A;fillColor=#EEEEEE;glass=0;swimlaneFillColor=none;gradientColor=none;" parent="1" vertex="1">
          <mxGeometry x="86" y="349" width="157" height="120" as="geometry" />
        </mxCell>
        <mxCell id="1r-0l79jZoqq-O8AW8kQ-24" value="+&lt;u&gt;SID&lt;/u&gt;&amp;nbsp; &amp;nbsp; &amp;nbsp; &amp;nbsp; &amp;nbsp; &amp;nbsp; &amp;nbsp; INT&lt;br&gt;+name&amp;nbsp; &amp;nbsp; &amp;nbsp; &amp;nbsp; &amp;nbsp; &amp;nbsp;Varchar（30）&amp;nbsp;&amp;nbsp;&lt;br&gt;+gender&amp;nbsp; &amp;nbsp; &amp;nbsp; &amp;nbsp; &amp;nbsp;char（1）&lt;div&gt;+keyword&amp;nbsp; &amp;nbsp; &amp;nbsp; &amp;nbsp;Varchar（13）&lt;/div&gt;" style="align=left;strokeColor=none;fillColor=none;spacingLeft=4;fontSize=12;verticalAlign=top;resizable=0;rotatable=0;part=1;html=1;fontColor=#1A1A1A;" parent="1r-0l79jZoqq-O8AW8kQ-23" vertex="1">
          <mxGeometry y="50" width="157" height="70" as="geometry" />
        </mxCell>
        <mxCell id="1r-0l79jZoqq-O8AW8kQ-27" value="Competition" style="swimlane;childLayout=stackLayout;horizontal=1;startSize=50;horizontalStack=0;rounded=1;fontSize=14;fontStyle=0;strokeWidth=2;resizeParent=0;resizeLast=1;shadow=1;align=center;arcSize=4;whiteSpace=wrap;html=1;strokeColor=#000000;fontColor=#1A1A1A;fillColor=#EEEEEE;glass=0;swimlaneFillColor=none;gradientColor=none;" parent="1" vertex="1">
          <mxGeometry x="441.17" y="474" width="155" height="103" as="geometry" />
        </mxCell>
        <mxCell id="1r-0l79jZoqq-O8AW8kQ-28" value="+&lt;u&gt;date&lt;/u&gt;&amp;nbsp; &amp;nbsp; &amp;nbsp; &amp;nbsp; &amp;nbsp; &amp;nbsp; Datetime&lt;br&gt;+&lt;u&gt;location&lt;/u&gt;&amp;nbsp; &amp;nbsp; &amp;nbsp; &amp;nbsp;Varchar（30）&lt;div&gt;+&lt;u&gt;item&lt;/u&gt;&amp;nbsp; &amp;nbsp; &amp;nbsp; &amp;nbsp; &amp;nbsp; &amp;nbsp; &amp;nbsp;Varchar（30）&lt;/div&gt;" style="align=left;strokeColor=none;fillColor=none;spacingLeft=4;fontSize=12;verticalAlign=top;resizable=0;rotatable=0;part=1;html=1;fontColor=#1A1A1A;" parent="1r-0l79jZoqq-O8AW8kQ-27" vertex="1">
          <mxGeometry y="50" width="155" height="53" as="geometry" />
        </mxCell>
        <mxCell id="4KKPkDI-_DM8PYgB312R-1" style="edgeStyle=orthogonalEdgeStyle;rounded=0;orthogonalLoop=1;jettySize=auto;html=1;" parent="1r-0l79jZoqq-O8AW8kQ-27" source="1r-0l79jZoqq-O8AW8kQ-28" target="1r-0l79jZoqq-O8AW8kQ-28" edge="1">
          <mxGeometry relative="1" as="geometry" />
        </mxCell>
        <mxCell id="1r-0l79jZoqq-O8AW8kQ-29" value="Venue" style="swimlane;childLayout=stackLayout;horizontal=1;startSize=50;horizontalStack=0;rounded=1;fontSize=14;fontStyle=0;strokeWidth=2;resizeParent=0;resizeLast=1;shadow=1;align=center;arcSize=4;whiteSpace=wrap;html=1;strokeColor=#000000;fontColor=#1A1A1A;fillColor=#EEEEEE;glass=0;swimlaneFillColor=none;gradientColor=none;" parent="1" vertex="1">
          <mxGeometry x="458" y="912" width="147" height="96" as="geometry" />
        </mxCell>
        <mxCell id="1r-0l79jZoqq-O8AW8kQ-30" value="+&lt;u&gt;location&lt;/u&gt;&amp;nbsp; &amp;nbsp; &amp;nbsp; &amp;nbsp; Varchar(30)&lt;br&gt;+&lt;u&gt;date&lt;/u&gt;&amp;nbsp; &amp;nbsp; &amp;nbsp; &amp;nbsp; &amp;nbsp; &amp;nbsp; &amp;nbsp;Datetime" style="align=left;strokeColor=none;fillColor=none;spacingLeft=4;fontSize=12;verticalAlign=top;resizable=0;rotatable=0;part=1;html=1;fontColor=#1A1A1A;" parent="1r-0l79jZoqq-O8AW8kQ-29" vertex="1">
          <mxGeometry y="50" width="147" height="46" as="geometry" />
        </mxCell>
        <mxCell id="1r-0l79jZoqq-O8AW8kQ-31" value="Test" style="swimlane;childLayout=stackLayout;horizontal=1;startSize=50;horizontalStack=0;rounded=1;fontSize=14;fontStyle=0;strokeWidth=2;resizeParent=0;resizeLast=1;shadow=1;align=center;arcSize=4;whiteSpace=wrap;html=1;strokeColor=#000000;fontColor=#1A1A1A;fillColor=#EEEEEE;glass=0;swimlaneFillColor=none;gradientColor=none;" parent="1" vertex="1">
          <mxGeometry x="454" y="778" width="146" height="110" as="geometry" />
        </mxCell>
        <mxCell id="1r-0l79jZoqq-O8AW8kQ-32" value="+&lt;u&gt;item&lt;/u&gt;&amp;nbsp; &amp;nbsp; &amp;nbsp; &amp;nbsp; &amp;nbsp; &amp;nbsp; &amp;nbsp;Var&lt;span style=&quot;background-color: initial;&quot;&gt;char(10)&lt;/span&gt;&lt;div&gt;&lt;div&gt;+&lt;u&gt;date&lt;/u&gt;&amp;nbsp; &amp;nbsp; &amp;nbsp; &amp;nbsp; &amp;nbsp; &amp;nbsp; &amp;nbsp;Datetime&lt;/div&gt;&lt;div&gt;+&lt;u&gt;location&lt;/u&gt;&amp;nbsp; &amp;nbsp; &amp;nbsp; &amp;nbsp; Varchar(30)&lt;/div&gt;&lt;/div&gt;" style="align=left;strokeColor=none;fillColor=none;spacingLeft=4;fontSize=12;verticalAlign=top;resizable=0;rotatable=0;part=1;html=1;fontColor=#1A1A1A;" parent="1r-0l79jZoqq-O8AW8kQ-31" vertex="1">
          <mxGeometry y="50" width="146" height="60" as="geometry" />
        </mxCell>
        <mxCell id="1r-0l79jZoqq-O8AW8kQ-25" value="Homework" style="swimlane;childLayout=stackLayout;horizontal=1;startSize=50;horizontalStack=0;rounded=1;fontSize=14;fontStyle=0;strokeWidth=2;resizeParent=0;resizeLast=1;shadow=1;align=center;arcSize=4;whiteSpace=wrap;html=1;strokeColor=#000000;fontColor=#1A1A1A;fillColor=#EEEEEE;glass=0;swimlaneFillColor=none;gradientColor=none;" parent="1" vertex="1">
          <mxGeometry x="443.67" y="349" width="150" height="91" as="geometry" />
        </mxCell>
        <mxCell id="1r-0l79jZoqq-O8AW8kQ-26" value="&lt;div&gt;+&lt;u&gt;task&lt;/u&gt;&amp;nbsp; &amp;nbsp; &amp;nbsp; &amp;nbsp; &amp;nbsp; Varchar（100）&lt;br&gt;+date&amp;nbsp; &amp;nbsp; &amp;nbsp; &amp;nbsp; &amp;nbsp; Datetime&lt;/div&gt;" style="align=left;strokeColor=none;fillColor=none;spacingLeft=4;fontSize=12;verticalAlign=top;resizable=0;rotatable=0;part=1;html=1;fontColor=#1A1A1A;" parent="1r-0l79jZoqq-O8AW8kQ-25" vertex="1">
          <mxGeometry y="50" width="150" height="41" as="geometry" />
        </mxCell>
        <mxCell id="4KKPkDI-_DM8PYgB312R-2" value="" style="edgeStyle=entityRelationEdgeStyle;fontSize=12;html=1;endArrow=ERzeroToMany;endFill=1;rounded=0;exitX=1.003;exitY=0.143;exitDx=0;exitDy=0;strokeColor=#000000;exitPerimeter=0;entryX=0;entryY=0.25;entryDx=0;entryDy=0;" parent="1" source="1r-0l79jZoqq-O8AW8kQ-24" target="1r-0l79jZoqq-O8AW8kQ-26" edge="1">
          <mxGeometry width="100" height="100" relative="1" as="geometry">
            <mxPoint x="451" y="668" as="sourcePoint" />
            <mxPoint x="422" y="542" as="targetPoint" />
            <Array as="points">
              <mxPoint x="225" y="679" />
              <mxPoint x="347" y="616" />
              <mxPoint x="409" y="542" />
            </Array>
          </mxGeometry>
        </mxCell>
        <mxCell id="4KKPkDI-_DM8PYgB312R-5" value="" style="edgeStyle=entityRelationEdgeStyle;fontSize=12;html=1;endArrow=ERzeroToMany;endFill=1;rounded=0;entryX=1;entryY=0.25;entryDx=0;entryDy=0;exitX=0;exitY=0.25;exitDx=0;exitDy=0;strokeColor=#000000;" parent="1" source="1r-0l79jZoqq-O8AW8kQ-20" target="1r-0l79jZoqq-O8AW8kQ-26" edge="1">
          <mxGeometry width="100" height="100" relative="1" as="geometry">
            <mxPoint x="451" y="668" as="sourcePoint" />
            <mxPoint x="551" y="568" as="targetPoint" />
            <Array as="points">
              <mxPoint x="836" y="987" />
              <mxPoint x="749" y="715" />
              <mxPoint x="578" y="537" />
            </Array>
          </mxGeometry>
        </mxCell>
        <mxCell id="4KKPkDI-_DM8PYgB312R-19" value="Homework content" style="swimlane;childLayout=stackLayout;horizontal=1;startSize=50;horizontalStack=0;rounded=1;fontSize=14;fontStyle=0;strokeWidth=2;resizeParent=0;resizeLast=1;shadow=1;align=center;arcSize=4;whiteSpace=wrap;html=1;strokeColor=#000000;fontColor=#1A1A1A;fillColor=#EEEEEE;glass=0;swimlaneFillColor=none;gradientColor=none;" parent="1" vertex="1">
          <mxGeometry x="785.0000000000001" y="327" width="150" height="120" as="geometry" />
        </mxCell>
        <mxCell id="4KKPkDI-_DM8PYgB312R-20" value="+&lt;u&gt;task&lt;/u&gt;&amp;nbsp; &amp;nbsp; &amp;nbsp;Varchar（100）&lt;br&gt;&lt;span style=&quot;color: rgb(51, 51, 51); text-wrap: wrap;&quot;&gt;+&lt;/span&gt;&lt;u style=&quot;color: rgb(51, 51, 51); text-wrap: wrap;&quot;&gt;SID&lt;/u&gt;&lt;span style=&quot;color: rgb(51, 51, 51); text-wrap: wrap;&quot;&gt;&amp;nbsp; &amp;nbsp; &amp;nbsp; &amp;nbsp;INT&lt;/span&gt;&lt;div style=&quot;color: rgb(51, 51, 51); text-wrap: wrap;&quot;&gt;&lt;span style=&quot;background-color: initial;&quot;&gt;+&lt;/span&gt;&lt;u style=&quot;background-color: initial;&quot;&gt;TID&lt;/u&gt;&lt;span style=&quot;background-color: initial;&quot;&gt;&amp;nbsp; &amp;nbsp; &amp;nbsp; &amp;nbsp;INT&lt;/span&gt;&lt;/div&gt;&lt;div style=&quot;color: rgb(51, 51, 51); text-wrap: wrap;&quot;&gt;&lt;span style=&quot;background-color: initial;&quot;&gt;+content Varchar(500)&lt;/span&gt;&lt;/div&gt;" style="align=left;strokeColor=none;fillColor=none;spacingLeft=4;fontSize=12;verticalAlign=top;resizable=0;rotatable=0;part=1;html=1;fontColor=#1A1A1A;" parent="4KKPkDI-_DM8PYgB312R-19" vertex="1">
          <mxGeometry y="50" width="150" height="70" as="geometry" />
        </mxCell>
        <mxCell id="4KKPkDI-_DM8PYgB312R-24" value="" style="edgeStyle=entityRelationEdgeStyle;fontSize=12;html=1;endArrow=ERzeroToMany;endFill=1;rounded=0;strokeColor=#000000;entryX=0;entryY=0.25;entryDx=0;entryDy=0;exitX=1;exitY=0.5;exitDx=0;exitDy=0;" parent="1" source="1r-0l79jZoqq-O8AW8kQ-25" target="4KKPkDI-_DM8PYgB312R-20" edge="1">
          <mxGeometry width="100" height="100" relative="1" as="geometry">
            <mxPoint x="574" y="520" as="sourcePoint" />
            <mxPoint x="442" y="562" as="targetPoint" />
            <Array as="points">
              <mxPoint x="245" y="699" />
              <mxPoint x="367" y="636" />
              <mxPoint x="429" y="562" />
            </Array>
          </mxGeometry>
        </mxCell>
        <mxCell id="4KKPkDI-_DM8PYgB312R-25" value="" style="edgeStyle=entityRelationEdgeStyle;fontSize=12;html=1;endArrow=ERzeroToMany;endFill=1;rounded=0;exitX=1;exitY=0.25;exitDx=0;exitDy=0;strokeColor=#000000;entryX=0;entryY=0.25;entryDx=0;entryDy=0;" parent="1" source="1r-0l79jZoqq-O8AW8kQ-24" target="1r-0l79jZoqq-O8AW8kQ-28" edge="1">
          <mxGeometry width="100" height="100" relative="1" as="geometry">
            <mxPoint x="220" y="342" as="sourcePoint" />
            <mxPoint x="454" y="419" as="targetPoint" />
            <Array as="points">
              <mxPoint x="235" y="689" />
              <mxPoint x="357" y="626" />
              <mxPoint x="419" y="552" />
            </Array>
          </mxGeometry>
        </mxCell>
        <mxCell id="4KKPkDI-_DM8PYgB312R-26" value="Registration info" style="swimlane;childLayout=stackLayout;horizontal=1;startSize=50;horizontalStack=0;rounded=1;fontSize=14;fontStyle=0;strokeWidth=2;resizeParent=0;resizeLast=1;shadow=1;align=center;arcSize=4;whiteSpace=wrap;html=1;strokeColor=#000000;fontColor=#1A1A1A;fillColor=#EEEEEE;glass=0;swimlaneFillColor=none;gradientColor=none;" parent="1" vertex="1">
          <mxGeometry x="788.35" y="474" width="157" height="123" as="geometry" />
        </mxCell>
        <mxCell id="4KKPkDI-_DM8PYgB312R-27" value="+&lt;u&gt;date&lt;/u&gt;&amp;nbsp; &amp;nbsp; &amp;nbsp; &amp;nbsp; &amp;nbsp; &amp;nbsp; Datetime&lt;br&gt;+&lt;u&gt;location&lt;/u&gt;&amp;nbsp; &amp;nbsp; &amp;nbsp; &amp;nbsp;Varchar（30）&lt;div&gt;+&lt;u&gt;item&lt;/u&gt;&amp;nbsp; &amp;nbsp; &amp;nbsp; &amp;nbsp; &amp;nbsp; &amp;nbsp; &amp;nbsp;Varchar（30）&lt;/div&gt;&lt;div&gt;+&lt;u&gt;SID&lt;/u&gt;&amp;nbsp; &amp;nbsp; &amp;nbsp; &amp;nbsp; &amp;nbsp; &amp;nbsp; &amp;nbsp; INT&lt;/div&gt;" style="align=left;strokeColor=none;fillColor=none;spacingLeft=4;fontSize=12;verticalAlign=top;resizable=0;rotatable=0;part=1;html=1;fontColor=#1A1A1A;" parent="4KKPkDI-_DM8PYgB312R-26" vertex="1">
          <mxGeometry y="50" width="157" height="73" as="geometry" />
        </mxCell>
        <mxCell id="4KKPkDI-_DM8PYgB312R-30" value="" style="edgeStyle=entityRelationEdgeStyle;fontSize=12;html=1;endArrow=ERzeroToMany;endFill=1;rounded=0;exitX=1;exitY=0;exitDx=0;exitDy=0;strokeColor=#000000;entryX=0;entryY=0;entryDx=0;entryDy=0;" parent="1" source="1r-0l79jZoqq-O8AW8kQ-28" target="4KKPkDI-_DM8PYgB312R-27" edge="1">
          <mxGeometry width="100" height="100" relative="1" as="geometry">
            <mxPoint x="220" y="350" as="sourcePoint" />
            <mxPoint x="454" y="592" as="targetPoint" />
            <Array as="points">
              <mxPoint x="245" y="699" />
              <mxPoint x="367" y="636" />
              <mxPoint x="429" y="562" />
            </Array>
          </mxGeometry>
        </mxCell>
        <mxCell id="4KKPkDI-_DM8PYgB312R-31" value="" style="edgeStyle=entityRelationEdgeStyle;fontSize=12;html=1;endArrow=ERzeroToMany;endFill=1;rounded=0;exitX=0;exitY=0;exitDx=0;exitDy=0;strokeColor=#000000;entryX=1;entryY=0.25;entryDx=0;entryDy=0;" parent="1" source="1r-0l79jZoqq-O8AW8kQ-21" target="1r-0l79jZoqq-O8AW8kQ-28" edge="1">
          <mxGeometry width="100" height="100" relative="1" as="geometry">
            <mxPoint x="220" y="350" as="sourcePoint" />
            <mxPoint x="454" y="592" as="targetPoint" />
            <Array as="points">
              <mxPoint x="245" y="699" />
              <mxPoint x="367" y="636" />
              <mxPoint x="429" y="562" />
            </Array>
          </mxGeometry>
        </mxCell>
        <mxCell id="4KKPkDI-_DM8PYgB312R-32" value="" style="edgeStyle=entityRelationEdgeStyle;fontSize=12;html=1;endArrow=ERmandOne;startArrow=ERmandOne;rounded=0;entryX=0;entryY=0.5;entryDx=0;entryDy=0;strokeColor=#000000;" parent="1" target="1r-0l79jZoqq-O8AW8kQ-31" edge="1">
          <mxGeometry width="100" height="100" relative="1" as="geometry">
            <mxPoint x="240" y="444" as="sourcePoint" />
            <mxPoint x="568" y="516" as="targetPoint" />
          </mxGeometry>
        </mxCell>
        <mxCell id="4KKPkDI-_DM8PYgB312R-33" value="" style="edgeStyle=entityRelationEdgeStyle;fontSize=12;html=1;endArrow=ERzeroToMany;endFill=1;rounded=0;strokeColor=#000000;entryX=0;entryY=0.25;entryDx=0;entryDy=0;" parent="1" target="1r-0l79jZoqq-O8AW8kQ-30" edge="1">
          <mxGeometry width="100" height="100" relative="1" as="geometry">
            <mxPoint x="238" y="460" as="sourcePoint" />
            <mxPoint x="454" y="592" as="targetPoint" />
            <Array as="points">
              <mxPoint x="245" y="699" />
              <mxPoint x="367" y="636" />
              <mxPoint x="429" y="562" />
            </Array>
          </mxGeometry>
        </mxCell>
        <mxCell id="4KKPkDI-_DM8PYgB312R-34" value="" style="edgeStyle=entityRelationEdgeStyle;fontSize=12;html=1;endArrow=ERzeroToMany;endFill=1;rounded=0;exitX=0;exitY=0.5;exitDx=0;exitDy=0;strokeColor=#000000;entryX=1;entryY=0.25;entryDx=0;entryDy=0;" parent="1" source="1r-0l79jZoqq-O8AW8kQ-21" target="1r-0l79jZoqq-O8AW8kQ-30" edge="1">
          <mxGeometry width="100" height="100" relative="1" as="geometry">
            <mxPoint x="230" y="360" as="sourcePoint" />
            <mxPoint x="464" y="602" as="targetPoint" />
            <Array as="points">
              <mxPoint x="255" y="709" />
              <mxPoint x="377" y="646" />
              <mxPoint x="439" y="572" />
            </Array>
          </mxGeometry>
        </mxCell>
        <mxCell id="4KKPkDI-_DM8PYgB312R-35" value="Test info" style="swimlane;childLayout=stackLayout;horizontal=1;startSize=50;horizontalStack=0;rounded=1;fontSize=14;fontStyle=0;strokeWidth=2;resizeParent=0;resizeLast=1;shadow=1;align=center;arcSize=4;whiteSpace=wrap;html=1;strokeColor=#000000;fontColor=#1A1A1A;fillColor=#EEEEEE;glass=0;swimlaneFillColor=none;gradientColor=none;" parent="1" vertex="1">
          <mxGeometry x="86" y="771" width="146" height="135" as="geometry" />
        </mxCell>
        <mxCell id="4KKPkDI-_DM8PYgB312R-36" value="+&lt;u&gt;item&lt;/u&gt;&amp;nbsp; &amp;nbsp; &amp;nbsp; &amp;nbsp; &amp;nbsp; &amp;nbsp; &amp;nbsp;Var&lt;span style=&quot;background-color: initial;&quot;&gt;char(10)&lt;/span&gt;&lt;div&gt;&lt;div&gt;+&lt;u&gt;date&lt;/u&gt;&amp;nbsp; &amp;nbsp; &amp;nbsp; &amp;nbsp; &amp;nbsp; &amp;nbsp; &amp;nbsp;Datetime&lt;/div&gt;&lt;div&gt;+&lt;u&gt;location&lt;/u&gt;&amp;nbsp; &amp;nbsp; &amp;nbsp; &amp;nbsp; Varchar(30)&lt;/div&gt;&lt;/div&gt;&lt;div&gt;+&lt;u&gt;SID&amp;nbsp;&lt;/u&gt; &amp;nbsp; &amp;nbsp; &amp;nbsp; &amp;nbsp; &amp;nbsp; &amp;nbsp; &amp;nbsp;INT&lt;/div&gt;&lt;div&gt;+Score&amp;nbsp; &amp;nbsp; &amp;nbsp; &amp;nbsp; &amp;nbsp; &amp;nbsp; INT&lt;/div&gt;" style="align=left;strokeColor=none;fillColor=none;spacingLeft=4;fontSize=12;verticalAlign=top;resizable=0;rotatable=0;part=1;html=1;fontColor=#1A1A1A;" parent="4KKPkDI-_DM8PYgB312R-35" vertex="1">
          <mxGeometry y="50" width="146" height="85" as="geometry" />
        </mxCell>
        <mxCell id="4KKPkDI-_DM8PYgB312R-38" value="Appointment info" style="swimlane;childLayout=stackLayout;horizontal=1;startSize=50;horizontalStack=0;rounded=1;fontSize=14;fontStyle=0;strokeWidth=2;resizeParent=0;resizeLast=1;shadow=1;align=center;arcSize=4;whiteSpace=wrap;html=1;strokeColor=#000000;fontColor=#1A1A1A;fillColor=#EEEEEE;glass=0;swimlaneFillColor=none;gradientColor=none;" parent="1" vertex="1">
          <mxGeometry x="86" y="920" width="147" height="107" as="geometry" />
        </mxCell>
        <mxCell id="4KKPkDI-_DM8PYgB312R-39" value="+&lt;u&gt;location&lt;/u&gt;&amp;nbsp; &amp;nbsp; &amp;nbsp; &amp;nbsp; Varchar(30)&lt;br&gt;+&lt;u&gt;date&lt;/u&gt;&amp;nbsp; &amp;nbsp; &amp;nbsp; &amp;nbsp; &amp;nbsp; &amp;nbsp; &amp;nbsp;Datetime&lt;div&gt;+&lt;u&gt;ID&lt;/u&gt;&amp;nbsp; &amp;nbsp; &amp;nbsp; &amp;nbsp; &amp;nbsp; &amp;nbsp; &amp;nbsp; &amp;nbsp; INT&lt;/div&gt;" style="align=left;strokeColor=none;fillColor=none;spacingLeft=4;fontSize=12;verticalAlign=top;resizable=0;rotatable=0;part=1;html=1;fontColor=#1A1A1A;" parent="4KKPkDI-_DM8PYgB312R-38" vertex="1">
          <mxGeometry y="50" width="147" height="57" as="geometry" />
        </mxCell>
        <mxCell id="4KKPkDI-_DM8PYgB312R-40" value="" style="edgeStyle=entityRelationEdgeStyle;fontSize=12;html=1;endArrow=ERzeroToMany;endFill=1;rounded=0;entryX=0;entryY=0.75;entryDx=0;entryDy=0;exitX=1;exitY=0.25;exitDx=0;exitDy=0;strokeColor=#000000;" parent="1" source="4KKPkDI-_DM8PYgB312R-39" target="1r-0l79jZoqq-O8AW8kQ-29" edge="1">
          <mxGeometry width="100" height="100" relative="1" as="geometry">
            <mxPoint x="457" y="846" as="sourcePoint" />
            <mxPoint x="557" y="746" as="targetPoint" />
            <Array as="points">
              <mxPoint x="450" y="994" />
            </Array>
          </mxGeometry>
        </mxCell>
        <mxCell id="4KKPkDI-_DM8PYgB312R-42" value="" style="edgeStyle=entityRelationEdgeStyle;fontSize=12;html=1;endArrow=ERoneToMany;rounded=0;entryX=1;entryY=0.25;entryDx=0;entryDy=0;exitX=0;exitY=0.25;exitDx=0;exitDy=0;strokeColor=#000000;" parent="1" source="1r-0l79jZoqq-O8AW8kQ-32" target="4KKPkDI-_DM8PYgB312R-36" edge="1">
          <mxGeometry width="100" height="100" relative="1" as="geometry">
            <mxPoint x="615" y="756" as="sourcePoint" />
            <mxPoint x="104" y="758" as="targetPoint" />
          </mxGeometry>
        </mxCell>
        <mxCell id="4KKPkDI-_DM8PYgB312R-44" value="Sign in" style="swimlane;childLayout=stackLayout;horizontal=1;startSize=50;horizontalStack=0;rounded=1;fontSize=14;fontStyle=0;strokeWidth=2;resizeParent=0;resizeLast=1;shadow=1;align=center;arcSize=4;whiteSpace=wrap;html=1;strokeColor=#000000;fontColor=#1A1A1A;fillColor=#EEEEEE;glass=0;swimlaneFillColor=none;gradientColor=none;" parent="1" vertex="1">
          <mxGeometry x="445" y="620" width="155" height="103" as="geometry" />
        </mxCell>
        <mxCell id="4KKPkDI-_DM8PYgB312R-45" value="+&lt;u&gt;date&lt;/u&gt;&amp;nbsp; &amp;nbsp; &amp;nbsp; &amp;nbsp; &amp;nbsp; &amp;nbsp; &amp;nbsp; &amp;nbsp; &amp;nbsp; &amp;nbsp;Datetime&lt;div&gt;+&lt;u&gt;SID&lt;/u&gt;&amp;nbsp; &amp;nbsp; &amp;nbsp; &amp;nbsp; &amp;nbsp; &amp;nbsp; &amp;nbsp; &amp;nbsp; &amp;nbsp; &amp;nbsp; INT&lt;/div&gt;&lt;div&gt;+&lt;u&gt;TID&lt;/u&gt;&amp;nbsp; &amp;nbsp; &amp;nbsp; &amp;nbsp; &amp;nbsp; &amp;nbsp; &amp;nbsp; &amp;nbsp; &amp;nbsp; &amp;nbsp; INT&lt;/div&gt;" style="align=left;strokeColor=none;fillColor=none;spacingLeft=4;fontSize=12;verticalAlign=top;resizable=0;rotatable=0;part=1;html=1;fontColor=#1A1A1A;" parent="4KKPkDI-_DM8PYgB312R-44" vertex="1">
          <mxGeometry y="50" width="155" height="53" as="geometry" />
        </mxCell>
        <mxCell id="4KKPkDI-_DM8PYgB312R-47" value="" style="edgeStyle=entityRelationEdgeStyle;fontSize=12;html=1;endArrow=ERmandOne;startArrow=ERmandOne;rounded=0;entryX=0;entryY=0.25;entryDx=0;entryDy=0;exitX=1;exitY=0.5;exitDx=0;exitDy=0;strokeColor=#000000;" parent="1" source="1r-0l79jZoqq-O8AW8kQ-24" target="4KKPkDI-_DM8PYgB312R-45" edge="1">
          <mxGeometry width="100" height="100" relative="1" as="geometry">
            <mxPoint x="459" y="746" as="sourcePoint" />
            <mxPoint x="559" y="646" as="targetPoint" />
          </mxGeometry>
        </mxCell>
        <mxCell id="4KKPkDI-_DM8PYgB312R-48" value="" style="edgeStyle=entityRelationEdgeStyle;fontSize=12;html=1;endArrow=ERzeroToMany;endFill=1;rounded=0;exitX=0;exitY=0.25;exitDx=0;exitDy=0;entryX=1;entryY=0.25;entryDx=0;entryDy=0;strokeColor=#000000;" parent="1" source="1r-0l79jZoqq-O8AW8kQ-21" target="4KKPkDI-_DM8PYgB312R-45" edge="1">
          <mxGeometry width="100" height="100" relative="1" as="geometry">
            <mxPoint x="459" y="746" as="sourcePoint" />
            <mxPoint x="559" y="646" as="targetPoint" />
          </mxGeometry>
        </mxCell>
      </root>
    </mxGraphModel>
  </diagram>
</mxfile>
